
<svg xmlns="http://www.w3.org/2000/svg"  version="1.1" viewBox="0 0 155.2 31.5">
  <path d="M152.4 4.2c1.2 0 1.9.4 2.4.7l.4-4.5c-1.1-.2-2.6-.4-4-.4-4.3 0-6.7 2.9-6.7 7.1V10h-4v4h4v17h5.5V14h4.8v-4H150V7.4c0-1.6.6-3.2 2.4-3.2ZM128 9.6c-6.2 0-10.9 4.2-10.9 11.1s4 10.8 10.9 10.8 11-4.8 11-10.8-4.8-11.1-11-11.1Zm0 17.7c-4.1 0-5.2-3.8-5.2-7.2s1.7-6.2 5.2-6.2 5.3 3 5.3 6.2-1.1 7.2-5.3 7.2ZM106.3 9.6c-2.8 0-5.2 1.3-6.6 3.3V.5h-5.5V31h5.5V20.7c0-2.7.9-7 4.8-7s3.5 3.5 3.5 6v11.2h5.5V17.7c0-4.7-2.2-8.2-7.1-8.2ZM82.1 9.6c-2.8 0-5.2.9-6.9 3.3v-2.8H70v21h5.5V20.8c0-2.7.9-7 4.8-7s3.5 3.5 3.5 6V31h5.5V17.8c0-4.7-2.2-8.2-7.1-8.2ZM56.3 9.6c-6.5 0-9.7 5-9.7 11.1s4 10.9 10.9 10.9 5.2-.6 7.2-1.7v-4.4c-2 1.1-4.3 2.1-7 2.1s-5.7-1.9-6-5.3h14.5c0-7.3-2.2-12.7-10-12.7Zm-4.5 8.9c.2-2.8 1.8-4.9 4.8-4.9s4.3 2.3 4.4 4.9h-9.3ZM37.4.5h5.5V31h-5.5zM26.5 14.8V10h-4.8v21h5.5v-7.7c0-3 0-8.5 4.4-8.5s2 .2 2.4.4V9.7c-.6-.2-1.1-.2-1.7-.2-3.3 0-5.5 3.3-5.7 5.2ZM5.7 18.6h10.1v-4.5H5.7v-7h11.1V2.6H0V31h16.8v-4.5H5.7v-7.9z" fill="#006F9A"/>
</svg>