<?xml version="1.0" encoding="UTF-8"?>
<svg id="Layer_1" xmlns="http://www.w3.org/2000/svg" version="1.1" xmlns:xlink="http://www.w3.org/1999/xlink" viewBox="0 0 200 30.6">
  <!-- Generator: Adobe Illustrator 29.5.0, SVG Export Plug-In . SVG Version: 2.1.0 Build 137)  -->
  <defs>
    <style>
      .st0 {
        fill: none;
      }

      .st1 {
        fill: #878787;
      }

      .st2 {
        fill: #006f9a;
      }

      .st3 {
        clip-path: url(#clippath);
      }
    </style>
    <clipPath id="clippath">
      <rect class="st0" width="200" height="30.6"/>
    </clipPath>
  </defs>
  <g class="st3">
    <g>
      <path class="st2" d="M102.6,25.7h3.5v-11h3.1v-2.6h-3.1v-1.7c0-1.1.4-2.1,1.6-2.1s1.2.3,1.5.5l.3-2.9c-.7-.2-1.7-.3-2.6-.3-2.8,0-4.3,1.9-4.3,4.6v1.9h-2.6v2.6h2.6v11ZM87.2,18.6c0-2,1.1-4,3.4-4s3.4,1.9,3.4,4-.7,4.7-3.4,4.7-3.4-2.4-3.4-4.7ZM83.5,19.1c0,3.9,2.6,7,7.1,7s7.1-3.1,7.1-7-3.1-7.2-7.1-7.2-7.1,2.7-7.1,7.2ZM67.5,25.7h3.5v-6.6c0-1.7.6-4.5,3.1-4.5s2.3,2.2,2.3,3.9v7.2h3.5v-8.6c0-3.1-1.4-5.3-4.6-5.3s-3.4.8-4.3,2.2h0V6h-3.5v19.8Z"/>
      <path class="st2" d="M50.2,25.7h3.5v-6.6c0-1.7.6-4.5,3.1-4.5s2.3,2.2,2.3,3.9v7.2h3.5v-8.6c0-3.1-1.4-5.3-4.6-5.3s-3.3.6-4.4,2.2h0v-1.8h-3.3v13.6h0ZM45.1,22.1c-1.3.7-2.8,1.4-4.5,1.4s-3.7-1.2-3.9-3.4h9.4c0-4.7-1.4-8.2-6.5-8.2s-6.3,3.2-6.3,7.2,2.6,7,7.1,7,3.4-.4,4.7-1.1v-2.9ZM36.8,17.6c.2-1.8,1.2-3.2,3.1-3.2s2.8,1.5,2.9,3.2h-6ZM26.2,25.7h3.5V6h-3.5v19.8ZM15.2,25.7h3.5v-5c0-1.9,0-5.5,2.9-5.5s1.3.1,1.6.3v-3.6c-.4-.1-.7-.1-1.1-.1-2.1,0-3.6,2.1-3.7,3.4h0v-3.1h-3.1v13.6h0ZM0,25.7h10.9v-2.9H3.7v-5.2h6.6v-2.9H3.7v-4.5h7.2v-2.9H0v18.4h0Z"/>
      <path class="st1" d="M117.2,0h1.3v30.6h-1.3V0Z"/>
      <path class="st1" d="M124.6,24.6l7.2-11.5h-7.1v-1.2h8.5v1.2l-7.2,11.5h7.4v1.2h-8.9v-1.2Z"/>
      <path class="st1" d="M143.3,25.4c-.9.4-2,.6-2.9.6-3.4,0-4.6-2.3-4.6-5.3s1.7-5.3,4.3-5.3,4,2.3,4,5v.6h-6.9c0,2.1,1.2,3.9,3.3,3.9s2.2-.4,2.8-.8v1.3ZM142.7,20c0-1.8-.7-3.5-2.6-3.5s-3,1.8-3,3.5h5.6Z"/>
      <path class="st1" d="M147.2,18c0-.8,0-1.6,0-2.4h1.2v1.8h0c.4-.9,1.2-2,3.3-2s3.5,1.7,3.5,3.9v6.5h-1.3v-6.2c0-1.9-.7-3.1-2.4-3.1s-3,2-3,3.7v5.6h-1.3v-7.7h0Z"/>
      <path class="st1" d="M163.4,16.7h-2.3v6.6c0,.9.3,1.7,1.4,1.7s.8,0,1.2-.2v1c-.2.1-.8.3-1.5.3-2.2,0-2.3-1.5-2.3-3.4v-5.9h-2v-1.1h2v-2.4l1.3-.4v2.9h2.3v1.1h0Z"/>
      <path class="st1" d="M167.3,17.9c0-1.1,0-1.5,0-2.3h1.3v1.9h0c.5-1.1,1.3-2.2,2.6-2.2s.7,0,.9.1v1.3c-.3,0-.6-.1-.9-.1-2,0-2.5,2.2-2.5,4.1v5h-1.3v-7.9h0Z"/>
      <path class="st1" d="M182.6,23.4c0,.8,0,1.6,0,2.4h-1.2v-1.8h0c-.4.9-1.2,2-3.3,2s-3.5-1.7-3.5-3.9v-6.5h1.3v6.2c0,1.9.7,3.1,2.4,3.1s3-2,3-3.7v-5.6h1.3v7.7h0Z"/>
      <path class="st1" d="M198.8,25.8v-6.7c0-1.4-.5-2.6-2.1-2.6s-2.7,1.2-2.7,3.7v5.6h-1.3v-6.7c0-1.4-.5-2.6-2.1-2.6s-2.7,1.2-2.7,3.7v5.6h-1.3v-7.7c0-.8,0-1.6,0-2.4h1.2v1.7h0c.4-.7,1-1.9,3.2-1.9s2.4.4,2.7,2.1h0c.5-1.2,1.6-2.1,3.2-2.1s3.2,1.4,3.2,3.4v7h-1.3Z"/>
    </g>
  </g>
</svg>